<svg xmlns="http://www.w3.org/2000/svg" width="1024" height="1024" viewBox="0 0 1024 1024">
  <path d="M526.843 209.84C544.165 210.412 561.389 212.665 578.275 216.566C629.766 227.98 672.817 250.275 712.836 284.833C772.336 336.873 809.047 410.178 815.079 488.996C821.257 568.907 795.309 647.982 742.987 708.697C730.78 722.699 720.308 732.395 706.213 744.383C656.106 787.001 599.147 810.158 533.534 814.549C453.626 820.406 374.69 794.103 314.266 741.486C253.105 688.748 215.424 613.856 209.526 533.313C203.867 453.3 230.195 374.311 282.728 313.693C335.826 252.715 411.074 215.462 491.76 210.208L497.356 209.906C497.633 222.195 497.45 234.946 497.391 247.255C436.623 251.234 381.121 272.969 335.819 313.915C282.714 361.235 250.615 427.737 246.603 498.752C243.329 570.159 268.654 639.924 316.97 692.604C359.737 739.51 424.848 772.834 488.56 775.855C489.63 760.401 489.068 736.847 488.797 721.027C473.17 720.585 457.012 720.87 441.333 720.651C423.798 720.406 403.618 720.946 386.707 715.441C400.305 712.57 406.989 711.759 420.66 707.301C451.93 697.105 478.78 674.645 493.422 644.971C468.659 653.834 429.467 654.876 404.565 646.288C446.321 638.426 476.298 616.385 493.897 577.076C467.581 583.774 444.571 585.002 418.044 577.478C429.162 575.379 436.702 573.635 446.941 568.316C468.347 557.196 488.404 532.918 495.289 509.809C472.171 518.547 462.893 518.973 438.458 517.206C440.953 516.128 443.42 514.986 445.856 513.781C452.809 510.264 459.247 505.031 464.972 499.789C488.787 477.98 502.67 451.542 512.483 421.197C513.448 424.946 514.517 428.668 515.689 432.358C524.478 459.484 543.194 487.889 565.708 505.559C571.836 510.369 577.858 513.654 584.706 517.173C561.867 519.178 549.959 517.441 528.506 510.235C538.661 544.714 573.397 573.341 608.812 578.452C585.183 585.343 553.081 583.656 529.419 576.967C543.75 611.71 581.289 640.373 617.882 647.5C612.342 649.048 605.114 650.031 599.337 650.742C574.74 653.77 554.272 652.758 530.423 645.716C543.534 672.852 570.012 695.782 598.21 705.979C610.176 710.306 623.653 712.658 636.152 714.689C617.734 719.624 598.052 720.9 579.054 720.776C564.147 720.678 549.312 719.77 534.466 721.577C534.311 739.399 534.257 757.222 534.303 775.045C570.767 773.829 606.978 761.989 638.758 744.572C655.053 735.264 670.545 724.615 685.072 712.736C737.954 668.115 770.924 604.298 776.717 535.348C783.203 466.233 761.842 397.387 717.372 344.081C679.236 298.536 630.924 267.638 572.713 253.922C557.469 250.33 542.678 248.913 527.105 247.535C526.862 234.972 526.775 222.406 526.843 209.84Z"/>
  <path d="M526.792 274.175C583.451 276.451 638.798 302.387 679.092 341.917C724.655 385.766 750.72 446.063 751.446 509.294C752.012 570.338 728.238 634.301 685.314 678.046C679.689 677.985 673.701 678.152 668.051 678.222C655.631 678.506 643.141 678.214 630.686 678.397C677.283 638.914 705.243 597.014 712.063 535.011C718.078 481.6 702.309 428.02 668.321 386.383C630.712 339.656 585.192 317.896 526.494 311.497C526.944 298.853 526.644 286.77 526.792 274.175Z"/>
  <path d="M490.315 274.702C491.746 274.464 495.841 274.369 497.481 274.285L497.502 311.896C496.167 311.951 494.833 312.041 493.502 312.164C439.95 317.177 390.629 343.411 356.54 385.015C322.67 426.229 306.534 479.197 311.674 532.294C316.013 579.305 338.541 625.358 371.678 658.69C378.752 665.805 385.755 671.537 393.478 677.945C383.266 677.884 373.222 678.223 362.875 678.085C355.517 678.024 347.868 677.849 340.542 678.184C336.648 674.578 331.972 669.024 328.403 664.967C297.872 630.257 278.583 581.915 273.942 535.956C267.895 472.198 287.499 408.657 328.417 359.388C368.831 309.888 427.102 281.071 490.315 274.702Z"/>
  <path d="M496.299 338.757L497.069 338.743C498.147 340.863 497.522 371.364 497.488 375.786C488.993 376.528 479.356 378.676 471.257 381.199C418.415 397.659 381.332 444.507 375.817 499.246C372.495 531.857 380.496 564.618 398.479 592.025C404.179 600.59 409.13 605.636 415.476 613.394L379.398 613.227L367.935 613.462C362.767 606.451 357.82 596.91 354.132 588.96C325.281 526.772 334.092 452.993 378.051 400.119C407.783 364.809 450.311 342.741 496.299 338.757Z"/>
  <path d="M526.831 338.375C531.482 338.58 536.426 339.476 541.038 340.186C632.156 354.21 698.476 444.79 685.408 535.876C681.611 562.343 671.428 591.598 655.591 613.413L646.062 613.433L607.621 613.331C629.067 594.581 644.17 560.234 647.783 532.159C652.906 495.21 642.89 457.757 620.005 428.298C597.251 398.907 563.622 379.914 526.704 375.602L526.831 338.375Z"/>
</svg>
